<svg width="1031" height="827" viewBox="0 0 1031 827" fill="none" xmlns="http://www.w3.org/2000/svg">
<g clip-path="url(#clip0_1498_92)">
<rect width="1031" height="827" fill="white"/>
<rect y="-6" width="1031" height="1031" fill="#1E1E1E"/>
<line x1="0.353553" y1="16.6464" x2="1019.35" y2="1035.65" stroke="white"/>
<line x1="46.0607" y1="-39.0607" x2="1065.06" y2="979.939" stroke="#F4C980" stroke-width="3"/>
<line x1="109.354" y1="-74.3536" x2="1128.35" y2="944.646" stroke="white"/>
<line x1="154.354" y1="-129.354" x2="1173.35" y2="889.646" stroke="white"/>
<line x1="299.354" y1="-251.354" x2="1318.35" y2="767.646" stroke="white"/>
<line x1="344.354" y1="-306.354" x2="1363.35" y2="712.646" stroke="white"/>
<line x1="200.061" y1="-191.061" x2="1219.06" y2="827.939" stroke="#F4C980" stroke-width="3"/>
<line x1="244.354" y1="-245.354" x2="1263.35" y2="773.646" stroke="white"/>
<line x1="789.061" y1="-315.939" x2="-229.939" y2="703.061" stroke="white" stroke-width="3"/>
<line x1="844.061" y1="-270.939" x2="-174.939" y2="748.061" stroke="white" stroke-width="3"/>
<line x1="788.354" y1="-151.646" x2="-230.647" y2="867.353" stroke="#F4C980"/>
<line x1="844.061" y1="-105.939" x2="-174.939" y2="913.061" stroke="#F4C980" stroke-width="3"/>
<line x1="609.061" y1="-327.939" x2="-409.939" y2="691.061" stroke="#F4C980" stroke-width="3"/>
<line x1="663.354" y1="-283.646" x2="-355.647" y2="735.353" stroke="white"/>
</g>
<defs>
<clipPath id="clip0_1498_92">
<rect width="1031" height="827" fill="white"/>
</clipPath>
</defs>
</svg>
